<svg xmlns="http://www.w3.org/2000/svg" viewBox="0 0 64 64" role="img" aria-labelledby="title desc">
  <title id="title">Google</title>
  <desc id="desc">Google provider mark</desc>
  <rect x="4" y="4" width="56" height="56" rx="12" fill="#FFFFFF"/>
  <path d="M32 14a18 18 0 1 0 0 36c9.6 0 16.5-6.7 16.5-16.1 0-1.1-.1-2.3-.3-3.4H32v6.5h9.3c-.5 3-3.1 6.5-9.3 6.5a11 11 0 1 1 0-22c3.1 0 5.8 1.1 7.7 2.9l4.9-4.8C41.5 16.6 37.1 14 32 14Z" fill="#4285F4"/>
  <path d="M21.6 39.3 16.3 43.4A18 18 0 0 1 14 32c0-2.8.6-5.6 1.9-8.1l5.6 4.6A11 11 0 0 0 21 32c0 2.6.8 5 2.2 7.3Z" fill="#34A853"/>
  <path d="m16 23.9 5.6 4.6c1.8-3.8 5.7-6.4 10.4-6.4 3.1 0 5.8 1.1 7.7 2.9l4.9-4.8C41.5 16.6 37.1 14 32 14c-7.3 0-13.6 4.1-16 9.9Z" fill="#FBBC05"/>
  <path d="M32 50c5 0 9.4-1.6 12.5-4.3l-5.8-4.7c-1.7 1.2-3.9 2-6.7 2-4.7 0-8.7-2.7-10.6-6.6l-5.5 4.2C19 45.8 25 50 32 50Z" fill="#EA4335"/>
</svg>
